PathFileType	4	(X/Y/Z)	/tmp/tmpvaf8quct/results/MarkerData/markers_smpl.trc
DataRate	CameraRate	NumFrames	NumMarkers	Units	OrigDataRate	OrigDataStartFrame	OrigNumFrames
120	120	9	44	m	120	223	597
Frame#	Time	C7			CLAV			LANK			LBHD			LBWT			LELB			LFHD			LFIN			LFRM			LFWT			LHEE			LKNE			LMT5			LPAT			LSHN			LSHO			LTHI			LTOE			LUPA			LWLA			LWRB			RANK			RBAC			RBHD			RBWT			RELB			RFHD			RFIN			RFRM			RFWT			RHEE			RKNE			RMT5			RPAT			RSHN			RSHO			RTHI			RTOE			RUPA			RWRA			RWRB			STRN			T10			T8		
		X1	Y1	Z1	X2	Y2	Z2	X3	Y3	Z3	X4	Y4	Z4	X5	Y5	Z5	X6	Y6	Z6	X7	Y7	Z7	X8	Y8	Z8	X9	Y9	Z9	X10	Y10	Z10	X11	Y11	Z11	X12	Y12	Z12	X13	Y13	Z13	X14	Y14	Z14	X15	Y15	Z15	X16	Y16	Z16	X17	Y17	Z17	X18	Y18	Z18	X19	Y19	Z19	X20	Y20	Z20	X21	Y21	Z21	X22	Y22	Z22	X23	Y23	Z23	X24	Y24	Z24	X25	Y25	Z25	X26	Y26	Z26	X27	Y27	Z27	X28	Y28	Z28	X29	Y29	Z29	X30	Y30	Z30	X31	Y31	Z31	X32	Y32	Z32	X33	Y33	Z33	X34	Y34	Z34	X35	Y35	Z35	X36	Y36	Z36	X37	Y37	Z37	X38	Y38	Z38	X39	Y39	Z39	X40	Y40	Z40	X41	Y41	Z41	X42	Y42	Z42	X43	Y43	Z43	X44	Y44	Z44

224	1.85833	-2.06234	1.51246	-0.517004	-1.94826	1.447	-0.487439	-1.89671	0.0955137	-0.717767	-1.93634	1.65495	-0.569549	-2.18263	1.03049	-0.599935	-2.09038	1.14289	-0.713503	-1.83132	1.69	-0.515041	-1.98451	0.798624	-0.828151	-2.05765	1.0564	-0.79048	-1.97514	1.01549	-0.605455	-1.93736	0.0396219	-0.70086	-1.91685	0.563131	-0.683608	-1.74439	0.0788891	-0.683602	-1.84232	0.527535	-0.609649	-1.91521	0.412411	-0.720727	-2.04488	1.47449	-0.327763	-1.97425	0.798107	-0.7003	-1.68457	0.0794387	-0.624311	-2.02991	1.26071	-0.752683	-1.98855	0.913271	-0.783637	-2.04361	0.905328	-0.790571	-2.30292	0.0760409	-0.489828	-2.12777	1.45437	-0.467437	-2.01904	1.65867	-0.484268	-2.21086	1.03166	-0.513816	-2.17054	1.12722	-0.333546	-1.92107	1.69069	-0.408817	-2.06377	0.791978	-0.220678	-2.13002	0.981086	-0.250035	-2.05179	1.00286	-0.396873	-2.32272	0.0272002	-0.536389	-2.20438	0.502996	-0.422891	-2.1821	0.0479677	-0.401487	-2.10998	0.473632	-0.44138	-2.25433	0.307966	-0.430974	-1.96062	1.48244	-0.676945	-2.19926	0.681378	-0.414136	-2.08048	0.051776	-0.417565	-2.12089	1.36165	-0.290918	-2.0503	0.910581	-0.253646	-2.10713	0.893672	-0.256377	-1.93851	1.28343	-0.487761	-2.13609	1.24232	-0.540463	-2.12915	1.3624	-0.535555
225	1.86667	-2.05563	1.51169	-0.516926	-1.94206	1.44538	-0.487418	-1.8826	0.0951935	-0.717254	-1.92939	1.65357	-0.569629	-2.17903	1.03012	-0.600006	-2.08568	1.14214	-0.713475	-1.82439	1.68861	-0.51507	-1.98369	0.797006	-0.828919	-2.054	1.05552	-0.790707	-1.97164	1.01454	-0.605698	-1.92235	0.0387005	-0.700233	-1.91312	0.562672	-0.684499	-1.7302	0.0812188	-0.682125	-1.83818	0.528074	-0.610526	-1.90838	0.411739	-0.721244	-2.03862	1.47355	-0.327711	-1.97128	0.797601	-0.700923	-1.67087	0.0832981	-0.622348	-2.02489	1.25971	-0.752724	-1.98614	0.911729	-0.784326	-2.0413	0.904417	-0.791167	-2.30222	0.0758168	-0.490004	-2.12153	1.45412	-0.467318	-2.01222	1.65728	-0.484358	-2.20723	1.03143	-0.51386	-2.16472	1.1265	-0.333497	-1.9142	1.68931	-0.408921	-2.05783	0.790966	-0.221699	-2.1241	0.980233	-0.250282	-2.0482	1.00215	-0.396989	-2.32183	0.0266029	-0.536269	-2.20241	0.502645	-0.423001	-2.18054	0.049118	-0.402341	-2.10817	0.473026	-0.441685	-2.25295	0.30777	-0.431145	-1.95441	1.481	-0.676906	-2.19669	0.681044	-0.414132	-2.07904	0.0540515	-0.419202	-2.11491	1.36095	-0.290822	-2.04441	0.909692	-0.254241	-2.10125	0.892848	-0.256805	-1.93376	1.28168	-0.487518	-2.13166	1.2421	-0.540626	-2.12366	1.36226	-0.535525
226	1.875	-2.04876	1.51064	-0.516911	-1.93517	1.44423	-0.48755	-1.86912	0.0951324	-0.716968	-1.92246	1.65231	-0.569819	-2.17424	1.03031	-0.60034	-2.081	1.14142	-0.71352	-1.81736	1.68739	-0.515477	-1.98323	0.795406	-0.829849	-2.05056	1.05463	-0.791052	-1.96701	1.01351	-0.605671	-1.90802	0.0380676	-0.699962	-1.9086	0.562312	-0.685333	-1.71672	0.0837119	-0.680746	-1.83361	0.528447	-0.611154	-1.90116	0.411232	-0.721786	-2.03189	1.47248	-0.327668	-1.96704	0.797342	-0.701463	-1.65789	0.087098	-0.620491	-2.01992	1.25866	-0.752917	-1.98419	0.910095	-0.785081	-2.03944	0.903433	-0.791838	-2.30228	0.0761839	-0.49049	-2.11466	1.45312	-0.467329	-2.00516	1.65604	-0.484393	-2.2026	1.03166	-0.514229	-2.15885	1.12571	-0.333518	-1.90696	1.68807	-0.409168	-2.05131	0.79007	-0.22255	-2.118	0.97933	-0.250583	-2.04394	1.00121	-0.397087	-2.32191	0.0269395	-0.536731	-2.20023	0.502545	-0.423308	-2.1805	0.0494505	-0.40289	-2.10611	0.472437	-0.441909	-2.25183	0.307961	-0.431535	-1.9481	1.47963	-0.677217	-2.1938	0.680938	-0.414485	-2.079	0.0545396	-0.419929	-2.10848	1.35995	-0.290896	-2.03834	0.908822	-0.255009	-2.09516	0.891941	-0.257264	-1.92699	1.28048	-0.487682	-2.12521	1.24149	-0.540372	-2.11693	1.36131	-0.535353
227	1.88333	-2.04173	1.5098	-0.516812	-1.92866	1.44252	-0.487578	-1.85533	0.0947122	-0.716687	-1.91543	1.65076	-0.570001	-2.1688	1.02921	-0.600863	-2.07601	1.14037	-0.713614	-1.81028	1.68599	-0.515889	-1.98292	0.793298	-0.830461	-2.04672	1.05336	-0.79127	-1.96157	1.0129	-0.604975	-1.89334	0.0370038	-0.699831	-1.90316	0.561455	-0.686161	-1.70304	0.0859731	-0.679338	-1.82834	0.528154	-0.611668	-1.8932	0.410247	-0.722369	-2.02479	1.47141	-0.327541	-1.96128	0.796624	-0.701586	-1.6448	0.0906488	-0.618554	-2.0143	1.25719	-0.752971	-1.98224	0.907924	-0.785492	-2.03756	0.902058	-0.792366	-2.30254	0.0764518	-0.490722	-2.10805	1.45285	-0.466977	-1.99804	1.65439	-0.484373	-2.19768	1.0305	-0.514945	-2.15253	1.12494	-0.333243	-1.89965	1.68658	-0.409414	-2.04468	0.788993	-0.223457	-2.11142	0.978385	-0.250767	-2.03974	1.00033	-0.396893	-2.32235	0.027217	-0.536891	-2.19774	0.502148	-0.423543	-2.18082	0.0493744	-0.403136	-2.10373	0.47147	-0.441835	-2.2506	0.307933	-0.431734	-1.94133	1.47782	-0.677262	-2.19044	0.680456	-0.414961	-2.07931	0.0541921	-0.420178	-2.1016	1.35915	-0.290477	-2.03186	0.907819	-0.255713	-2.08869	0.890993	-0.257705	-1.92197	1.27871	-0.487497	-2.12045	1.24103	-0.540639	-2.11121	1.36108	-0.535302
228	1.89167	-2.03461	1.5085	-0.516954	-1.922	1.44048	-0.487882	-1.84192	0.0949497	-0.716322	-1.9083	1.64894	-0.570379	-2.16493	1.02836	-0.600967	-2.07087	1.13932	-0.713873	-1.8031	1.6842	-0.516389	-1.98254	0.791233	-0.831293	-2.04271	1.0521	-0.791656	-1.95781	1.01211	-0.605494	-1.87913	0.0367143	-0.699416	-1.89805	0.561124	-0.686931	-1.68972	0.0885322	-0.678229	-1.82327	0.528519	-0.612166	-1.88554	0.409852	-0.722891	-2.0177	1.47012	-0.327762	-1.95678	0.796257	-0.701952	-1.63194	0.0944598	-0.617103	-2.00844	1.25565	-0.753208	-1.98028	0.905755	-0.786151	-2.03567	0.900687	-0.793092	-2.30287	0.0766725	-0.490815	-2.10128	1.4521	-0.46699	-1.99086	1.65262	-0.484654	-2.19363	1.02967	-0.514988	-2.14636	1.12407	-0.333163	-1.89237	1.68486	-0.409849	-2.03842	0.787804	-0.22455	-2.10499	0.977353	-0.251127	-2.03545	0.999396	-0.397294	-2.32292	0.0274124	-0.536881	-2.19553	0.501771	-0.423754	-2.1811	0.0494651	-0.403408	-2.10171	0.470601	-0.442293	-2.24946	0.307872	-0.431855	-1.93438	1.47587	-0.677422	-2.18733	0.679994	-0.415175	-2.07959	0.0540342	-0.420606	-2.09483	1.35821	-0.29042	-2.02548	0.906706	-0.25655	-2.08234	0.889978	-0.25833	-1.91663	1.27647	-0.487864	-2.11571	1.24047	-0.54068	-2.10531	1.36045	-0.53537
229	1.9	-2.02715	1.50742	-0.517015	-1.91491	1.43875	-0.48809	-1.82903	0.0948876	-0.715837	-1.90095	1.64731	-0.570768	-2.15958	1.02766	-0.60139	-2.06544	1.13839	-0.71408	-1.79557	1.68263	-0.517204	-1.98196	0.789391	-0.832201	-2.03854	1.05094	-0.791991	-1.95253	1.01117	-0.605146	-1.86536	0.0361423	-0.69883	-1.89273	0.56041	-0.687826	-1.67684	0.0909101	-0.677266	-1.81785	0.52844	-0.61299	-1.87807	0.409068	-0.723432	-2.0103	1.46892	-0.327782	-1.95151	0.795643	-0.70231	-1.61942	0.0980541	-0.615888	-2.00236	1.25425	-0.753397	-1.97813	0.903731	-0.786745	-2.03358	0.899437	-0.793676	-2.30314	0.0769745	-0.490951	-2.09409	1.45146	-0.466903	-1.98324	1.65097	-0.484723	-2.1886	1.02897	-0.515536	-2.13994	1.12322	-0.333077	-1.88442	1.68327	-0.410324	-2.03199	0.786693	-0.225286	-2.09842	0.976342	-0.251403	-2.03095	0.998395	-0.397253	-2.32337	0.0277289	-0.536962	-2.19328	0.501481	-0.424087	-2.1814	0.0494179	-0.403602	-2.0996	0.469743	-0.442473	-2.24838	0.307937	-0.432089	-1.92712	1.47407	-0.67756	-2.1841	0.679634	-0.415598	-2.07988	0.0537654	-0.420901	-2.08777	1.35726	-0.290323	-2.01899	0.905608	-0.25724	-2.07588	0.888961	-0.258814	-1.91064	1.27467	-0.487889	-2.11004	1.23988	-0.540816	-2.09883	1.35986	-0.535358
230	1.90833	-2.01947	1.50613	-0.517167	-1.90759	1.43687	-0.488371	-1.81666	0.0951212	-0.715535	-1.89338	1.6456	-0.571196	-2.15448	1.02697	-0.601646	-2.05972	1.13723	-0.71439	-1.78783	1.6809	-0.517974	-1.98131	0.787366	-0.833295	-2.03415	1.04958	-0.792467	-1.94753	1.01006	-0.605256	-1.85225	0.0359623	-0.698507	-1.88705	0.559838	-0.68834	-1.66451	0.0931041	-0.676551	-1.81192	0.52856	-0.613535	-1.87045	0.408561	-0.723715	-2.00277	1.46763	-0.327908	-1.94648	0.795002	-0.702711	-1.60741	0.101115	-0.614946	-1.99607	1.25264	-0.753668	-1.97587	0.901501	-0.787549	-2.03138	0.898007	-0.794465	-2.30338	0.0773789	-0.491316	-2.0867	1.45063	-0.466922	-1.97545	1.6493	-0.484916	-2.18358	1.02832	-0.515824	-2.13319	1.12225	-0.333112	-1.87637	1.68158	-0.41082	-2.02539	0.78545	-0.225825	-2.09177	0.975204	-0.251672	-2.0261	0.997232	-0.397416	-2.32385	0.0282422	-0.537359	-2.19054	0.501092	-0.424606	-2.18211	0.0490223	-0.403615	-2.09702	0.468772	-0.442852	-2.24699	0.307994	-0.432533	-1.91969	1.47205	-0.677783	-2.18053	0.679128	-0.416097	-2.08051	0.0526603	-0.420599	-2.08055	1.35621	-0.290342	-2.01253	0.904333	-0.257828	-2.06943	0.887755	-0.259202	-1.90437	1.27272	-0.488046	-2.10414	1.23915	-0.540825	-2.0921	1.3591	-0.535337
231	1.91667	-2.01192	1.50479	-0.51744	-1.90041	1.43494	-0.488763	-1.80479	0.0956043	-0.71548	-1.88583	1.64377	-0.571699	-2.14978	1.02632	-0.60198	-2.05415	1.13597	-0.714815	-1.78028	1.67919	-0.518595	-1.9803	0.785417	-0.834526	-2.02981	1.04824	-0.793141	-1.94293	1.00905	-0.605734	-1.8397	0.0360318	-0.698485	-1.88123	0.559471	-0.688631	-1.65272	0.0953926	-0.676211	-1.80613	0.528748	-0.613661	-1.86278	0.408318	-0.723938	-1.99539	1.46625	-0.328178	-1.94132	0.79454	-0.702995	-1.59588	0.104135	-0.614461	-1.99005	1.25102	-0.754071	-1.97329	0.899459	-0.788782	-2.02885	0.896662	-0.795529	-2.30397	0.0782521	-0.491864	-2.07946	1.44973	-0.467084	-1.96786	1.64755	-0.485375	-2.17881	1.02768	-0.516133	-2.12644	1.12114	-0.333337	-1.86875	1.67996	-0.411382	-2.01877	0.784146	-0.226469	-2.08505	0.974004	-0.252053	-2.02127	0.996067	-0.397864	-2.32494	0.0294457	-0.538049	-2.18732	0.500736	-0.425276	-2.18402	0.0480433	-0.403123	-2.09395	0.467769	-0.44328	-2.24549	0.308242	-0.433125	-1.91245	1.46999	-0.678191	-2.17668	0.678572	-0.41676	-2.08223	0.0497465	-0.419098	-2.07346	1.35505	-0.290502	-2.00594	0.903016	-0.258476	-2.06287	0.886522	-0.259649	-1.89819	1.27074	-0.488532	-2.09843	1.23842	-0.540872	-2.08553	1.3583	-0.535458
232	1.925	-2.00421	1.50357	-0.51767	-1.89289	1.43336	-0.489111	-1.79333	0.0955685	-0.715516	-1.87809	1.64212	-0.572189	-2.1435	1.02556	-0.602523	-2.04851	1.13486	-0.715148	-1.77259	1.6778	-0.519162	-1.9789	0.783828	-0.83582	-2.02541	1.0471	-0.793766	-1.93672	1.00807	-0.604959	-1.82751	0.0355669	-0.698512	-1.87503	0.558722	-0.689253	-1.64135	0.0973621	-0.676033	-1.80008	0.528303	-0.614094	-1.85507	0.407601	-0.724449	-1.9877	1.46505	-0.328354	-1.93482	0.79392	-0.702959	-1.58474	0.107008	-0.614171	-1.98418	1.24963	-0.754473	-1.97038	0.897717	-0.789918	-2.02598	0.895558	-0.796488	-2.30385	0.0787058	-0.492226	-2.07189	1.4488	-0.46719	-1.96012	1.64579	-0.48581	-2.17306	1.02692	-0.516871	-2.11968	1.1203	-0.333366	-1.86101	1.67845	-0.411925	-2.01227	0.783028	-0.227194	-2.07828	0.973024	-0.252344	-2.01635	0.995031	-0.397619	-2.32499	0.02997	-0.53838	-2.18474	0.500517	-0.425876	-2.18418	0.0478733	-0.403226	-2.09147	0.466924	-0.443389	-2.24412	0.308417	-0.433633	-1.90542	1.46825	-0.678654	-2.17308	0.678239	-0.417446	-2.08235	0.0489717	-0.419086	-2.06609	1.35405	-0.290597	-1.99929	0.901899	-0.259147	-2.05626	0.885536	-0.260078	-1.89136	1.2691	-0.488685	-2.09188	1.23762	-0.540998	-2.07844	1.35738	-0.535513
